<?xml version="1.0" standalone="no"?>
<!DOCTYPE svg PUBLIC "-//W3C//DTD SVG 20010904//EN"
 "http://www.w3.org/TR/2001/REC-SVG-20010904/DTD/svg10.dtd">
<svg version="1.0" xmlns="http://www.w3.org/2000/svg"
 width="180.000000pt" height="180.000000pt" viewBox="0 0 180.000000 180.000000"
 preserveAspectRatio="xMidYMid meet">
<metadata>
Created by potrace 1.14, written by Peter Selinger 2001-2017
</metadata>
<g transform="translate(0.000000,180.000000) scale(0.100000,-0.100000)"
fill="#000000" stroke="none">
<path d="M785 1793 c-16 -2 -50 -8 -75 -14 -25 -6 -52 -12 -60 -14 -8 -2 -40
-13 -70 -24 -208 -81 -376 -231 -476 -426 -34 -66 -64 -138 -69 -165 0 -3 -7
-30 -15 -60 -24 -90 -19 -317 9 -415 85 -305 298 -531 591 -629 98 -32 115
-35 240 -42 73 -4 129 -1 185 10 102 19 112 21 160 39 285 107 489 334 571
637 26 97 24 328 -4 433 -38 140 -120 289 -216 395 -48 52 -174 146 -245 181
-70 36 -174 73 -240 86 -34 7 -247 13 -286 8z"/>
</g>
</svg>
